<?xml version="1.0" encoding="utf-8"?>
<!-- Generator: Adobe Illustrator 26.0.2, SVG Export Plug-In . SVG Version: 6.00 Build 0)  -->
<svg version="1.1" id="Layer_1" xmlns="http://www.w3.org/2000/svg" xmlns:xlink="http://www.w3.org/1999/xlink" x="0px" y="0px"
	 viewBox="0 0 1280 543.43" style="enable-background:new 0 0 1280 543.43;" xml:space="preserve">
<style type="text/css">
	.st0{fill:#F7F8F8;}
</style>
<path class="st0" d="M0,231.29c16.61,13.44,43.11,31.16,78.67,39.16c56.8,12.79,84.48-10.98,137.67-14.24
	c96.71-5.93,107.02,66.39,205.32,71.21c88.05,4.32,99.93-52.72,200.57-54.59c92.66-1.72,95.82,46.38,179.21,48.66
	c128.32,3.51,170.39-109.04,305.01-117.49c69.39-4.36,129.45,21.07,173.55,47.47c0,38.77,0,77.55,0,116.32
	c-426.67,0-853.33,0-1280,0C0,322.28,0,276.78,0,231.29z"/>
</svg>
