<?xml version="1.0" encoding="utf-8"?>
<!-- Generator: Adobe Illustrator 26.0.2, SVG Export Plug-In . SVG Version: 6.00 Build 0)  -->
<svg version="1.1" id="Layer_1" xmlns="http://www.w3.org/2000/svg" xmlns:xlink="http://www.w3.org/1999/xlink" x="0px" y="0px"
	 viewBox="0 0 1172.9 196.2" style="enable-background:new 0 0 1172.9 196.2;" xml:space="preserve">
<style type="text/css">
	.st0{fill:url(#SVGID_1_);}
</style>
<linearGradient id="SVGID_1_" gradientUnits="userSpaceOnUse" x1="0" y1="99.9533" x2="1172.91" y2="99.9533">
	<stop  offset="0" style="stop-color:#F26962"/>
	<stop  offset="0.243" style="stop-color:#F26962"/>
	<stop  offset="1" style="stop-color:#EC7726;stop-opacity:0.9"/>
</linearGradient>
<path class="st0" d="M0,128.5C31.8,96.2,62.9,78.7,91.5,84c46.7,8.6,52.4,71.5,101.2,77.1c35.2,4,71.9-24.3,89.2-45.7
	c9.5-11.8,15.8-23.6,24-39.8c20-39.3,20.6-60.4,38.7-68.7c9.2-4.2,21.9-4.7,32.3,0.1c29.8,13.9,14.5,60,53,103.5
	c9.2,10.5,17.3,19.6,31.3,24.1c40.2,12.9,87.5-26,96.8-34c22.9-19.7,23.1-31.1,41.7-37c19.5-6.3,42.7-1.3,59.3,10
	c24.2,16.5,19.2,36.4,45.5,63.5c8.1,8.4,25.1,25.9,45.8,30.1c54.5,11.1,79.2-78.4,145.7-83.1c65.7-4.7,110.4,78.5,153.9,57.1
	c6.2-3.1,20-12.2,47.6-30.6c13.3-8.9,19.1-13.2,28.6-16.9c9.9-3.9,25.4-8.2,47-7.2c0,36.7,0,73.3,0,110
	c-391-0.1-781.9-0.2-1172.9-0.2C0,173.6,0,151.1,0,128.5z"/>
</svg>
